<svg width="25" height="25" viewBox="0 0 25 25" fill="none" xmlns="http://www.w3.org/2000/svg">
<path d="M3.73519 7.90187C3.34449 8.29257 3.125 8.82247 3.125 9.37501V18.75C3.125 19.3025 3.34449 19.8324 3.73519 20.2231C4.12589 20.6138 4.6558 20.8333 5.20833 20.8333H19.7917C20.3442 20.8333 20.8741 20.6138 21.2648 20.2231C21.6555 19.8324 21.875 19.3025 21.875 18.75V9.37501C21.875 8.82247 21.6555 8.29257 21.2648 7.90187C20.8741 7.51117 20.3442 7.29167 19.7917 7.29167H18.8229C18.48 7.29172 18.1424 7.20713 17.84 7.04541C17.5377 6.88369 17.2799 6.64983 17.0896 6.36459L16.2437 5.09376C16.0534 4.80851 15.7957 4.57466 15.4933 4.41293C15.1909 4.25121 14.8533 4.16662 14.5104 4.16667H10.4896C10.1467 4.16662 9.80907 4.25121 9.5067 4.41293C9.20433 4.57466 8.94656 4.80851 8.75625 5.09376L7.91042 6.36459C7.72011 6.64983 7.46233 6.88369 7.15996 7.04541C6.8576 7.20713 6.51998 7.29172 6.17708 7.29167H5.20833C4.6558 7.29167 4.12589 7.51117 3.73519 7.90187Z" stroke="#64748B" stroke-width="1.5" stroke-linecap="round" stroke-linejoin="round"/>
<path d="M14.7097 15.7514C15.2958 15.1653 15.625 14.3705 15.625 13.5417C15.625 12.7129 15.2958 11.918 14.7097 11.332C14.1237 10.7459 13.3288 10.4167 12.5 10.4167C11.6712 10.4167 10.8763 10.7459 10.2903 11.332C9.70424 11.918 9.375 12.7129 9.375 13.5417C9.375 14.3705 9.70424 15.1653 10.2903 15.7514C10.8763 16.3374 11.6712 16.6667 12.5 16.6667C13.3288 16.6667 14.1237 16.3374 14.7097 15.7514Z" stroke="#64748B" stroke-width="2" stroke-linecap="round" stroke-linejoin="round"/>
</svg>
