<svg width="25" height="25" viewBox="0 0 25 25" fill="none" xmlns="http://www.w3.org/2000/svg">
<path d="M13.5417 16.6667H12.5V12.5H11.4583M12.5 8.33333H12.5104M21.875 12.5C21.875 13.7311 21.6325 14.9502 21.1614 16.0877C20.6902 17.2251 19.9997 18.2586 19.1291 19.1291C18.2586 19.9997 17.2251 20.6902 16.0877 21.1614C14.9502 21.6325 13.7311 21.875 12.5 21.875C11.2689 21.875 10.0498 21.6325 8.91234 21.1614C7.77492 20.6902 6.74142 19.9997 5.87087 19.1291C5.00032 18.2586 4.30977 17.2251 3.83863 16.0877C3.36749 14.9502 3.125 13.7311 3.125 12.5C3.125 10.0136 4.11272 7.62903 5.87087 5.87087C7.62903 4.11272 10.0136 3.125 12.5 3.125C14.9864 3.125 17.371 4.11272 19.1291 5.87087C20.8873 7.62903 21.875 10.0136 21.875 12.5Z" stroke="#64748B" stroke-width="1.5" stroke-linecap="round" stroke-linejoin="round"/>
</svg>
