<svg width="25" height="25" viewBox="0 0 25 25" fill="none" xmlns="http://www.w3.org/2000/svg">
<path d="M17.7083 2.08331H7.29167C4.41519 2.08331 2.08334 4.41516 2.08334 7.29165V17.7083C2.08334 20.5848 4.41519 22.9166 7.29167 22.9166H17.7083C20.5848 22.9166 22.9167 20.5848 22.9167 17.7083V7.29165C22.9167 4.41516 20.5848 2.08331 17.7083 2.08331Z" stroke="#64748B" stroke-width="1.5" stroke-linecap="round" stroke-linejoin="round"/>
<path d="M16.6667 11.8438C16.7952 12.7107 16.6471 13.5961 16.2435 14.374C15.8399 15.1519 15.2012 15.7827 14.4184 16.1768C13.6355 16.5708 12.7484 16.7079 11.8831 16.5687C11.0178 16.4295 10.2185 16.0209 9.59879 15.4012C8.97908 14.7815 8.57055 13.9822 8.43132 13.1169C8.29208 12.2516 8.42923 11.3645 8.82325 10.5816C9.21728 9.79882 9.84811 9.16016 10.626 8.75651C11.4039 8.35287 12.2893 8.20479 13.1562 8.33334C14.0405 8.46447 14.8592 8.87653 15.4913 9.50866C16.1235 10.1408 16.5355 10.9595 16.6667 11.8438Z" stroke="#64748B" stroke-width="2" stroke-linecap="round" stroke-linejoin="round"/>
<path d="M18.2292 6.77081H18.2396" stroke="#64748B" stroke-width="2" stroke-linecap="round" stroke-linejoin="round"/>
</svg>
