<svg width="25" height="25" viewBox="0 0 25 25" fill="none" xmlns="http://www.w3.org/2000/svg">
<path d="M16.6667 8.33331C18.3243 8.33331 19.914 8.99179 21.0861 10.1639C22.2582 11.336 22.9167 12.9257 22.9167 14.5833V21.875H18.75V14.5833C18.75 14.0308 18.5305 13.5009 18.1398 13.1102C17.7491 12.7195 17.2192 12.5 16.6667 12.5C16.1141 12.5 15.5842 12.7195 15.1935 13.1102C14.8028 13.5009 14.5833 14.0308 14.5833 14.5833V21.875H10.4167V14.5833C10.4167 12.9257 11.0751 11.336 12.2472 10.1639C13.4193 8.99179 15.0091 8.33331 16.6667 8.33331Z" stroke="#64748B" stroke-width="1.5" stroke-linecap="round" stroke-linejoin="round"/>
<path d="M6.25 9.375H2.08334V21.875H6.25V9.375Z" stroke="#64748B" stroke-width="2" stroke-linecap="round" stroke-linejoin="round"/>
<path d="M4.16667 6.24998C5.31726 6.24998 6.25 5.31724 6.25 4.16665C6.25 3.01605 5.31726 2.08331 4.16667 2.08331C3.01608 2.08331 2.08334 3.01605 2.08334 4.16665C2.08334 5.31724 3.01608 6.24998 4.16667 6.24998Z" stroke="#64748B" stroke-width="2" stroke-linecap="round" stroke-linejoin="round"/>
</svg>
