<svg width="25" height="25" viewBox="0 0 25 25" fill="none" xmlns="http://www.w3.org/2000/svg">
<path d="M18.3927 17.351L13.9729 21.7708C13.7796 21.9643 13.5501 22.1178 13.2975 22.2225C13.0448 22.3272 12.774 22.3811 12.5005 22.3811C12.227 22.3811 11.9562 22.3272 11.7036 22.2225C11.4509 22.1178 11.2214 21.9643 11.0281 21.7708L6.60729 17.351C5.4419 16.1856 4.64827 14.7007 4.32676 13.0842C4.00525 11.4677 4.1703 9.7922 4.80105 8.26951C5.43179 6.74682 6.49989 5.44535 7.87029 4.5297C9.24069 3.61404 10.8518 3.12531 12.5 3.12531C14.1482 3.12531 15.7593 3.61404 17.1297 4.5297C18.5001 5.44535 19.5682 6.74682 20.199 8.26951C20.8297 9.7922 20.9948 11.4677 20.6732 13.0842C20.3517 14.7007 19.5581 16.1856 18.3927 17.351V17.351Z" stroke="#64748B" stroke-width="1.5" stroke-linecap="round" stroke-linejoin="round"/>
<path d="M14.7097 13.668C15.2958 13.082 15.625 12.2871 15.625 11.4583C15.625 10.6295 15.2958 9.83466 14.7097 9.2486C14.1237 8.66255 13.3288 8.33331 12.5 8.33331C11.6712 8.33331 10.8763 8.66255 10.2903 9.2486C9.70424 9.83466 9.375 10.6295 9.375 11.4583C9.375 12.2871 9.70424 13.082 10.2903 13.668C10.8763 14.2541 11.6712 14.5833 12.5 14.5833C13.3288 14.5833 14.1237 14.2541 14.7097 13.668Z" stroke="#64748B" stroke-width="2" stroke-linecap="round" stroke-linejoin="round"/>
</svg>
