<svg width="25" height="25" viewBox="0 0 25 25" fill="none" xmlns="http://www.w3.org/2000/svg">
<path d="M22.9166 13.0208V6.25C22.9166 5.69747 22.6972 5.16756 22.3065 4.77686C21.9158 4.38616 21.3858 4.16667 20.8333 4.16667H4.16665C3.61411 4.16667 3.08421 4.38616 2.69351 4.77686C2.30281 5.16756 2.08331 5.69747 2.08331 6.25V18.75C2.08331 19.8958 3.02081 20.8333 4.16665 20.8333H11.9791" stroke="#64748B" stroke-width="1.5" stroke-linecap="round" stroke-linejoin="round"/>
<path d="M22.9166 7.29167L13.5729 13.2292C13.2513 13.4307 12.8795 13.5375 12.5 13.5375C12.1205 13.5375 11.7487 13.4307 11.4271 13.2292L2.08331 7.29167" stroke="#64748B" stroke-width="2" stroke-linecap="round" stroke-linejoin="round"/>
<path d="M18.75 21.875C19.5788 21.875 20.3737 21.5458 20.9597 20.9597C21.5458 20.3737 21.875 19.5788 21.875 18.75C21.875 17.9212 21.5458 17.1263 20.9597 16.5403C20.3737 15.9542 19.5788 15.625 18.75 15.625C17.9212 15.625 17.1263 15.9542 16.5403 16.5403C15.9542 17.1263 15.625 17.9212 15.625 18.75C15.625 19.5788 15.9542 20.3737 16.5403 20.9597C17.1263 21.5458 17.9212 21.875 18.75 21.875Z" stroke="#64748B" stroke-width="2" stroke-linecap="round" stroke-linejoin="round"/>
<path d="M18.75 21.875C20.4759 21.875 21.875 20.4759 21.875 18.75C21.875 17.0241 20.4759 15.625 18.75 15.625C17.0241 15.625 15.625 17.0241 15.625 18.75C15.625 20.4759 17.0241 21.875 18.75 21.875Z" stroke="#64748B" stroke-width="2" stroke-linecap="round" stroke-linejoin="round"/>
<path d="M22.9167 22.9167L21.3542 21.3542" stroke="#64748B" stroke-width="2" stroke-linecap="round" stroke-linejoin="round"/>
</svg>
