<svg width="25" height="25" viewBox="0 0 25 25" fill="none" xmlns="http://www.w3.org/2000/svg">
<path d="M22.9167 17.625V20.75C22.9179 21.0401 22.8584 21.3273 22.7422 21.5931C22.626 21.8589 22.4555 22.0975 22.2418 22.2936C22.028 22.4897 21.7756 22.639 21.5008 22.732C21.226 22.8249 20.9348 22.8594 20.6458 22.8333C17.4405 22.485 14.3615 21.3897 11.6563 19.6354C9.13942 18.0361 7.00557 15.9023 5.40626 13.3854C3.64582 10.6679 2.55026 7.57395 2.20835 4.35417C2.18231 4.06611 2.21655 3.77579 2.30887 3.50169C2.40118 3.22759 2.54956 2.97572 2.74456 2.76211C2.93955 2.54849 3.17689 2.37782 3.44146 2.26096C3.70603 2.1441 3.99203 2.08361 4.28126 2.08333H7.40626C7.91179 2.07836 8.40188 2.25737 8.78518 2.58701C9.16848 2.91665 9.41884 3.37442 9.48959 3.875C9.62149 4.87507 9.86611 5.85701 10.2188 6.80208C10.3589 7.17492 10.3892 7.58012 10.3062 7.96967C10.2231 8.35921 10.0301 8.71678 9.75001 9L8.4271 10.3229C9.90997 12.9308 12.0692 15.09 14.6771 16.5729L16 15.25C16.2832 14.9699 16.6408 14.7769 17.0303 14.6938C17.4199 14.6108 17.8251 14.6411 18.1979 14.7812C19.143 15.1339 20.1249 15.3785 21.125 15.5104C21.631 15.5818 22.0931 15.8367 22.4235 16.2266C22.7538 16.6164 22.9294 17.1141 22.9167 17.625Z" stroke="#64748B" stroke-width="1.5" stroke-linecap="round" stroke-linejoin="round"/>
<path d="M14.6354 2.08333C16.7586 2.30705 18.7419 3.24875 20.2572 4.75269C21.7725 6.25663 22.7291 8.23272 22.9688 10.3542" stroke="#64748B" stroke-width="2" stroke-linecap="round" stroke-linejoin="round"/>
<path d="M14.6354 6.25C15.6599 6.45202 16.6 6.95732 17.3338 7.70032C18.0675 8.44332 18.5609 9.38972 18.75 10.4167" stroke="#64748B" stroke-width="2" stroke-linecap="round" stroke-linejoin="round"/>
</svg>
